# xmcd
#
# Track frame offsets:
#	150
#	17416
#	33281
#	54973
#	78212
#	95397
#	115086
#	129792
#	152150
#	168535
#	193202
#	221462
#	246872
#	264508
#	284415
#
# Disc length: 4041 seconds
#
# Revision: 0
# Processed by: cddbd v1.5.2PL0 Copyright (c) Steve Scherf et al.
# Submitted via: EasyCDDAExtractor 16.0.8.2
#
DISCID=bf0fc70f
DTITLE=Ανάγλυφα μιάς τέχνης ταπεινής
DYEAR=2002
DGENRE=Παραδοσιακή
TTITLE0=Τσέρτος Μπάμπης - Αχ μελαχροινό μου [παραδ. αστικό Σμύρνης, δ. Γ.Παπαδ
TTITLE0=άκης]
TTITLE1=Τσέρτος Μπάμπης - Ερηνάκι [παραδοσιακό Λέρου]
TTITLE2=Τσέρτος Μπάμπης - Δημητρούλα [παραδοσιακό Σκύρου]
TTITLE3=Πανούσης Τζίμης - Κανελόριζα [παραδοσιακό Μικράς Ασίας, δ. Τζίμης Πανο
TTITLE3=ύσης]
TTITLE4=Τσέρτος Μπάμπης - Μπάλλος-Μαστίχα [παραδοσιακό Μικράς Ασίας]
TTITLE5=Τσέρτος Μπάμπης - Μέσ' στην απάνω γειτονιά [παρ. Πελοπ/σου, Τρόπαια Αρ
TTITLE5=καδίας]
TTITLE6=Τσέρτος Μπάμπης - Τσετσέκι μου [παραδοσιακό Πελοποννήσου, Τρόπαια Αρκα
TTITLE6=δίας]
TTITLE7=Καραγιάννη Νάντια - Εσείς πουλιά του κάμπου [παραδοσιακό Πελοποννήσου]
TTITLE8=Τσέρτος Μπάμπης - Ματζουράνα [παραδοσιακό Πελοποννήσου]
TTITLE9=Τσέρτος Μπάμπης - Της Μάνης τα βουνά [παραδ. Πελοπ/σου, Τρόπαια Αρκαδί
TTITLE9=ας]
TTITLE10=Σιάτρας Σάββας - Αχ μωρέ σεβντά [παραδοσιακό Ηπείρου]
TTITLE11=Αηδονίδης Χρόνης-Τσέρτος Μπάμπης - Σύρε να πεις της μάνας σου [παραδο
TTITLE11=σιακό Μικράς Ασίας]
TTITLE12=Τσέρτος Μπάμπης - Η βράκα [παραδοσιακό Κύπρου]
TTITLE13=Τσέρτος Μπάμπης - Εσείς πουλιά πετούμενα [παραδοσιακό Πελοποννήσου]
TTITLE14=Φαραντούρη Μαρία - Ο Μενούσης [παραδ. Ηπείρου, δ. Γιώργος Παππαδάκης]
EXTD=
EXTT0=
EXTT1=
EXTT2=
EXTT3=
EXTT4=
EXTT5=
EXTT6=
EXTT7=
EXTT8=
EXTT9=
EXTT10=
EXTT11=
EXTT12=
EXTT13=
EXTT14=
PLAYORDER=
